<svg width="38" height="38" viewBox="0 0 38 38" fill="none" xmlns="http://www.w3.org/2000/svg">
<path d="M17.8826 35.7637C19.8273 35.7637 21.7049 35.4507 23.4573 34.8785C22.5919 33.7532 21.8612 32.5304 21.2802 31.2351C20.1715 32.802 18.9689 33.5284 17.8826 33.5284C16.414 33.5284 14.7376 32.2096 13.3629 29.2636C12.8396 28.1179 12.4221 26.9268 12.1156 25.7051H20.1268C20.1536 24.9407 20.2587 24.1919 20.433 23.4699H11.6372C11.3266 21.6235 11.1726 19.7542 11.1768 17.8818C11.1768 15.9081 11.3399 14.0261 11.6372 12.2938H24.1279C24.3962 13.8674 24.5571 15.5639 24.5839 17.3409C25.259 16.8804 25.9944 16.5027 26.7879 16.2233C26.7301 14.907 26.5981 13.5951 26.3922 12.2938H32.5012C32.9706 13.5209 33.2903 14.8218 33.4378 16.1741C34.2738 16.458 35.0494 16.8492 35.7558 17.3297C35.6473 13.8182 34.5068 10.4164 32.4768 7.54912C30.4467 4.6818 27.6169 2.476 24.3408 1.2071C21.0647 -0.0617977 17.4874 -0.337567 14.0556 0.414224C10.6237 1.16601 7.48928 2.91205 5.04371 5.43435C2.59814 7.95664 0.949747 11.1434 0.30434 14.5968C-0.341066 18.0502 0.0451086 21.6173 1.41465 24.8525C2.78419 28.0878 5.07642 30.848 8.00514 32.7885C10.9339 34.7289 14.3693 35.7637 17.8826 35.7637ZM17.8826 2.23523C19.3511 2.23523 21.0276 3.55402 22.4023 6.50005C22.8873 7.54166 23.3098 8.73975 23.6518 10.0585H12.1133C12.4553 8.73975 12.8778 7.54166 13.3651 6.50005C14.7353 3.55402 16.4118 2.23523 17.8826 2.23523ZM11.3377 5.55455C10.6777 7.00032 10.1661 8.50939 9.81102 10.0585H4.32791C6.21501 6.79704 9.21247 4.32327 12.7728 3.08909C12.2341 3.82672 11.7535 4.66269 11.3377 5.55455ZM9.37067 12.2938C9.08138 14.1423 8.93788 16.0108 8.9415 17.8818C8.9415 19.8265 9.09126 21.7085 9.37291 23.4699H3.26392C2.58222 21.6858 2.23371 19.7917 2.23569 17.8818C2.23569 15.9148 2.60004 14.0283 3.26392 12.2938H9.37291H9.37067ZM9.81102 25.7051C10.2044 27.3659 10.7208 28.8836 11.3377 30.2091C11.7535 31.101 12.2341 31.9369 12.7728 32.6746C9.21247 31.4404 6.21501 28.9666 4.32791 25.7051H9.81326H9.81102ZM22.9924 3.08909C26.5528 4.32309 29.5503 6.79691 31.4372 10.0585H25.9519C25.5968 8.5094 25.0852 7.00034 24.4252 5.55455C24.0272 4.68853 23.5466 3.86289 22.9902 3.08909H22.9924ZM38 26.1119C38 21.5677 34.7253 17.8841 30.1788 17.8841C25.6345 17.8841 22.3531 21.5677 22.3531 26.1119C22.3531 29.5184 24.5481 34.0023 29.6312 37.8156C29.9553 38.0615 30.4023 38.0615 30.7264 37.8156C35.8139 34.0023 38 29.5184 38 26.1119ZM33.5295 25.7051C33.5295 26.5944 33.1762 27.4472 32.5474 28.0759C31.9186 28.7047 31.0658 29.058 30.1766 29.058C29.2873 29.058 28.4345 28.7047 27.8057 28.0759C27.1769 27.4472 26.8237 26.5944 26.8237 25.7051C26.8237 24.8159 27.1769 23.9631 27.8057 23.3343C28.4345 22.7055 29.2873 22.3523 30.1766 22.3523C31.0658 22.3523 31.9186 22.7055 32.5474 23.3343C33.1762 23.9631 33.5295 24.8159 33.5295 25.7051V25.7051Z" fill="#E35F2E"/>
</svg>
