<svg width="34" height="34" viewBox="0 0 34 34" fill="none" xmlns="http://www.w3.org/2000/svg">
<path d="M9.57806 0.295966C7.36315 -0.264314 5.04176 -0.0266197 3.22298 0.987827C1.37013 2.01925 0.0710005 3.84865 0.00710902 6.29563C-0.090858 10.12 0.797234 15.2516 4.32405 21.2746C7.80614 27.2234 11.6503 30.7888 14.8406 32.9068C16.8553 34.246 19.0809 34.2821 20.9827 33.4098C22.8569 32.5503 24.3775 30.8334 25.1676 28.7047C25.3642 28.1753 25.4432 27.6097 25.3991 27.0468C25.355 26.484 25.1888 25.9375 24.912 25.4449L22.8803 21.8328C22.2557 20.7211 21.2506 19.8704 20.0485 19.4364C18.8465 19.0023 17.5278 19.0137 16.3335 19.4686L14.9151 20.0098C14.2272 20.2708 13.5947 20.1498 13.2369 19.7975C12.0336 18.6197 11.1732 17.0216 10.7835 15.2983C10.66 14.755 10.9113 14.1141 11.5118 13.662L12.7918 12.6985C13.8266 11.9204 14.5409 10.7929 14.8009 9.52731C15.0609 8.26176 14.8485 6.94517 14.2038 5.82449L12.1337 2.22724C11.8595 1.75099 11.4919 1.33458 11.0528 1.0028C10.6138 0.671014 10.1122 0.430635 9.57806 0.295966ZM2.13683 6.35293C2.17942 4.71029 3.01427 3.53668 4.26229 2.84057C5.54438 2.12537 7.295 1.90677 9.05415 2.35245C9.31192 2.41733 9.55394 2.53325 9.76579 2.69332C9.97764 2.85338 10.155 3.05431 10.2873 3.28413L12.3552 6.88138C12.742 7.55352 12.8695 8.34315 12.7139 9.10227C12.5582 9.86139 12.1301 10.5379 11.5097 11.005L10.2298 11.9685C9.1223 12.8004 8.3556 14.2266 8.70488 15.7652C9.17767 17.8493 10.2234 19.8251 11.744 21.3128C12.8557 22.3994 14.4402 22.4631 15.6754 21.992L17.0938 21.4508C17.8105 21.1774 18.6019 21.1703 19.3234 21.4306C20.0449 21.6909 20.6483 22.2013 21.0232 22.8685L23.0528 26.4827C23.3084 26.9369 23.3509 27.4802 23.1699 27.9683C22.5523 29.6343 21.3916 30.8843 20.0925 31.4807C18.821 32.0643 17.3835 32.0473 16.0226 31.1411C13.1027 29.2013 9.48435 25.8757 6.16199 20.205C2.8375 14.5173 2.04951 9.77616 2.13896 6.35293H2.13683ZM22.7994 0.181363C22.5525 0.0445879 22.2613 0.011126 21.9897 0.0883387C21.7181 0.165551 21.4884 0.347114 21.3511 0.593085C21.2139 0.839055 21.1803 1.12929 21.2578 1.39993C21.3353 1.67057 21.5175 1.89946 21.7643 2.03623L22.5821 2.4904C25.137 3.90469 27.3102 5.91437 28.9161 8.34767C30.522 10.781 31.5128 13.5656 31.8038 16.4634L31.8719 17.132C31.88 17.275 31.917 17.415 31.9808 17.5435C32.0446 17.6719 32.1339 17.7861 32.2432 17.8792C32.3525 17.9724 32.4796 18.0424 32.6169 18.0853C32.7541 18.1281 32.8986 18.1428 33.0417 18.1284C33.1848 18.1141 33.3235 18.071 33.4494 18.0018C33.5754 17.9326 33.6859 17.8387 33.7744 17.7257C33.8629 17.6128 33.9276 17.4831 33.9644 17.3446C34.0013 17.2061 34.0096 17.0616 33.9889 16.9197L33.9229 16.2533C33.5979 13.0139 32.4906 9.90102 30.6955 7.18088C28.9005 4.46073 26.4711 2.21422 23.615 0.633408L22.7994 0.181363ZM20.3033 5.86906C20.4488 5.62791 20.6844 5.45421 20.9584 5.38615C21.2324 5.31809 21.5223 5.36126 21.7643 5.50615L22.0284 5.6632C23.7475 6.69027 25.2223 8.07712 26.3508 9.72787C27.4793 11.3786 28.2346 13.2539 28.5645 15.224L28.6582 15.7907C28.685 15.9296 28.6836 16.0725 28.6542 16.211C28.6248 16.3494 28.5678 16.4805 28.4868 16.5967C28.4057 16.7129 28.3022 16.8117 28.1822 16.8875C28.0622 16.9632 27.9283 17.0142 27.7882 17.0375C27.6482 17.0609 27.5049 17.0561 27.3667 17.0234C27.2285 16.9908 27.0983 16.9309 26.9837 16.8474C26.8691 16.7638 26.7725 16.6583 26.6994 16.5369C26.6263 16.4156 26.5784 16.2809 26.5583 16.1409L26.4625 15.5742C26.1838 13.9075 25.5453 12.3209 24.5911 10.9241C23.6369 9.52731 22.3898 8.35361 20.9358 7.48411L20.6718 7.32494C20.5518 7.25333 20.4471 7.15886 20.3637 7.04694C20.2804 6.93501 20.22 6.80781 20.1859 6.67262C20.1519 6.53742 20.145 6.39687 20.1655 6.25899C20.186 6.12111 20.2335 5.98861 20.3055 5.86906H20.3033Z" fill="#F26531"/>
</svg>
