<svg width="38" height="38" viewBox="0 0 38 38" fill="none" xmlns="http://www.w3.org/2000/svg">
<path d="M33.9861 6.33325H4.23608C3.6725 6.33325 3.132 6.55567 2.73348 6.95158C2.33497 7.34749 2.11108 7.88446 2.11108 8.44436V29.5555C2.11108 30.1154 2.33497 30.6523 2.73348 31.0483C3.132 31.4442 3.6725 31.6666 4.23608 31.6666H33.9861C34.5497 31.6666 35.0902 31.4442 35.4887 31.0483C35.8872 30.6523 36.1111 30.1154 36.1111 29.5555V8.44436C36.1111 7.88446 35.8872 7.34749 35.4887 6.95158C35.0902 6.55567 34.5497 6.33325 33.9861 6.33325ZM32.3498 29.5555H5.99983L13.4373 21.9133L11.9073 20.446L4.23608 28.331V10.0488L17.443 23.106C17.8411 23.4992 18.3797 23.7199 18.9411 23.7199C19.5025 23.7199 20.0411 23.4992 20.4392 23.106L33.9861 9.72159V28.1938L26.1661 20.4249L24.668 21.9133L32.3498 29.5555ZM5.62796 8.44436H32.2648L18.9411 21.6071L5.62796 8.44436Z" fill="#E35F2E"/>
</svg>
